<svg viewBox="246 0 191 37" xmlns="http://www.w3.org/2000/svg" fill="none">
<path fill-rule="evenodd" clip-rule="evenodd" d="M348.097 35.6007L348.096 35.5992H358.174L364.365 23.1514L370.556 35.5992H382.802L364.364 0L346.862 33.7966L340.142 23.9845C344.291 21.9835 346.877 18.518 346.877 13.54V13.442C346.877 9.92848 345.804 7.39026 343.754 5.34009C341.362 2.94867 337.506 1.43574 331.455 1.43574H314.762V35.6007H326.183V25.8391H328.624L335.066 35.6007H348.097ZM418.526 0L400.09 35.5992H412.336L418.527 23.1514L424.718 35.5992H436.964L418.526 0ZM391.456 36.9999L409.892 1.4007H397.646L391.455 13.8486L385.264 1.4007H373.018L391.456 36.9999ZM331.113 17.6885C333.846 17.6885 335.506 16.4683 335.506 14.3698V14.2718C335.506 12.0756 333.797 11.0019 331.162 11.0019H326.184V17.6885H331.113ZM290.338 11.0994H280.284V1.43574H311.813V11.0994H301.759V35.6007H290.338V11.0994ZM252.455 23.2037L246.354 30.476C250.698 34.2835 256.945 36.2353 263.876 36.2353C273.052 36.2353 278.957 31.8425 278.957 24.6675V24.5702C278.957 17.6884 273.1 15.1502 264.364 13.5401C260.752 12.856 259.825 12.2712 259.825 11.3435V11.2459C259.825 10.4162 260.606 9.83055 262.314 9.83055C265.486 9.83055 269.342 10.8554 272.563 13.198L278.128 5.48696C274.174 2.36309 269.294 0.800959 262.705 0.800959C253.284 0.800959 248.209 5.82859 248.209 12.3196V12.4176C248.209 19.6406 254.944 21.8376 262.607 23.3985C266.267 24.131 267.341 24.6675 267.341 25.6439V25.7419C267.341 26.6688 266.463 27.2053 264.412 27.2053C260.41 27.2053 256.164 26.0348 252.455 23.2037Z" fill="#FC5200"/>
</svg>
